HIERARCHY
ROOT Hips
{
 OFFSET 0.000000 0.000000 0.000000
 CHANNELS 6 Xposition Yposition Zposition Yrotation Xrotation Zrotation
 JOINT Chest
 {
  OFFSET 0.000000 9.857222 0.000240
  CHANNELS 3 Yrotation Xrotation Zrotation
  JOINT Chest2
  {
   OFFSET 0.000000 10.876940 -0.000436
   CHANNELS 3 Yrotation Xrotation Zrotation
   JOINT Chest3
   {
    OFFSET 0.000000 9.827798 0.000000
    CHANNELS 3 Yrotation Xrotation Zrotation
    JOINT Chest4
    {
     OFFSET 0.000000 9.827798 0.000000
     CHANNELS 3 Yrotation Xrotation Zrotation
     JOINT Neck
     {
      OFFSET 0.000000 13.831992 0.000000
      CHANNELS 3 Yrotation Xrotation Zrotation
      JOINT Head
      {
       OFFSET 0.000000 9.147643 -0.001036
       CHANNELS 3 Yrotation Xrotation Zrotation
       End Site
       {
        OFFSET 0.000000 17.515799 -0.000541
       }
      }
     }
     JOINT RightCollar
     {
      OFFSET -3.001579 7.717577 0.000000
      CHANNELS 3 Yrotation Xrotation Zrotation
      JOINT RightShoulder
      {
       OFFSET -14.002642 0.000000 0.000000
       CHANNELS 3 Yrotation Xrotation Zrotation
       JOINT RightElbow
       {
        OFFSET -30.053852 0.000000 0.000000
        CHANNELS 3 Yrotation Xrotation Zrotation
        JOINT RightWrist
        {
         OFFSET -24.564923 0.000000 -0.000000
         CHANNELS 3 Yrotation Xrotation Zrotation
         End Site
         {
          OFFSET -18.334355 0.000000 0.000000
         }
        }
       }
      }
     }
     JOINT LeftCollar
     {
      OFFSET 3.001579 7.717577 0.000000
      CHANNELS 3 Yrotation Xrotation Zrotation
      JOINT LeftShoulder
      {
       OFFSET 14.002642 0.000000 0.000000
       CHANNELS 3 Yrotation Xrotation Zrotation
       JOINT LeftElbow
       {
        OFFSET 30.053852 0.000000 0.000000
        CHANNELS 3 Yrotation Xrotation Zrotation
        JOINT LeftWrist
        {
         OFFSET 24.564923 0.000000 -0.000000
         CHANNELS 3 Yrotation Xrotation Zrotation
         End Site
         {
          OFFSET 18.334355 0.000000 0.000000
         }
        }
       }
      }
     }
    }
   }
  }
 }
 JOINT RightHip
 {
  OFFSET -8.003235 -0.001175 -0.000120
  CHANNELS 3 Yrotation Xrotation Zrotation
  JOINT RightKnee
  {
   OFFSET 0.000000 -41.759727 0.000113
   CHANNELS 3 Yrotation Xrotation Zrotation
   JOINT RightAnkle
   {
    OFFSET 0.000000 -40.728748 0.000159
    CHANNELS 3 Yrotation Xrotation Zrotation
    JOINT RightToe
    {
     OFFSET 0.000000 -6.515296 14.732841
     CHANNELS 3 Yrotation Xrotation Zrotation
     End Site
     {
      OFFSET 0.000000 -1.502839 6.412115
     }
    }
   }
  }
 }
 JOINT LeftHip
 {
  OFFSET 8.003235 -0.001175 -0.000120
  CHANNELS 3 Yrotation Xrotation Zrotation
  JOINT LeftKnee
  {
   OFFSET 0.000000 -41.759727 0.000113
   CHANNELS 3 Yrotation Xrotation Zrotation
   JOINT LeftAnkle
   {
    OFFSET 0.000000 -40.728748 0.000159
    CHANNELS 3 Yrotation Xrotation Zrotation
    JOINT LeftToe
    {
     OFFSET 0.000000 -6.515296 14.732841
     CHANNELS 3 Yrotation Xrotation Zrotation
     End Site
     {
      OFFSET 0.000000 -1.502839 6.412115
     }
    }
   }
  }
 }
}
MOTION
Frames: 11
Frame Time: 0.016667
23.132687 90.377418 17.421515 -40.317181 -3.687551 -3.897332 6.557918 4.865975 5.488938 2.908998 2.170645 2.432956 2.908998 2.170645 2.432956 2.172884 1.639637 1.814211 -8.594115 19.746140 0.799133 -15.925220 1.015319 4.075076 8.864500 4.115337 13.546056 28.490540 -4.674022 89.433229 25.102857 4.490917 -17.910319 -9.469488 7.738929 -4.334296 -26.251235 14.314952 -10.315289 -24.840374 11.234536 -57.396512 -64.827451 -14.361282 21.339713 -9.231239 9.844986 2.300196 85.306208 -79.234766 -75.138916 -65.303888 73.512257 -68.373102 8.727484 37.080195 -4.443927 -0.887980 -7.494364 4.063382 17.929168 -5.974557 1.104862 -2.919155 16.236516 3.369699 4.330997 -7.245813 1.536834 0.188799 0.006966 -0.275207
22.919481 90.372512 17.410660 -40.124087 -3.961088 -3.915803 6.363011 4.965199 5.358112 2.896899 2.161692 2.427223 2.896899 2.161692 2.427223 2.163868 1.632846 1.809999 -8.609983 19.952852 0.796261 -15.936573 1.398384 4.049012 8.817932 4.022687 13.510514 28.518546 -4.603788 89.431667 25.040729 4.367871 -17.919685 -9.484914 7.730551 -4.311165 -26.224117 14.163017 -10.352829 -24.823258 11.422987 -57.371412 -65.257985 -14.271879 21.490452 -9.184125 9.815601 2.255245 70.127039 -78.129630 -59.366890 -61.438943 73.363398 -65.076833 7.169660 38.023505 -5.589207 -0.817017 -7.650875 4.195439 17.817068 -5.811736 1.317026 -3.219976 16.508742 3.283513 4.546577 -7.341669 1.570628 0.227518 -0.015725 -0.322070
22.706608 90.361004 17.393928 -39.840922 -4.217019 -3.881114 6.101416 5.061662 5.167101 2.878549 2.144589 2.423651 2.878549 2.144589 2.423651 2.150191 1.619928 1.807469 -8.652117 20.169286 0.758411 -15.984730 1.797399 3.966018 8.759441 3.904431 13.450805 28.367403 -4.506509 89.394632 24.965978 4.455655 -17.862420 -9.463062 7.730175 -4.255829 -26.162071 13.929714 -10.355908 -24.577817 11.501337 -57.389131 -65.591228 -14.037918 21.360913 -9.145539 9.810032 2.195324 56.733147 -76.200825 -45.360760 -57.817160 72.573575 -62.152344 5.676759 38.596185 -6.674439 -0.707287 -7.512149 4.112925 17.420094 -5.711704 1.470567 -3.029331 16.887866 3.299223 4.498383 -7.430387 1.604582 0.264774 -0.077157 -0.366713
22.483876 90.336382 17.390128 -39.535795 -4.479886 -3.770266 5.822877 5.203883 4.916071 2.864571 2.121437 2.411877 2.864571 2.121437 2.411877 2.139847 1.602453 1.798801 -8.712937 20.368946 0.715842 -16.067104 2.166782 3.881887 8.680571 3.778769 13.415865 27.979788 -4.448845 89.289571 24.657347 5.095022 -17.636629 -9.393637 7.807514 -4.210964 -26.123458 13.745615 -10.358011 -24.421558 11.510106 -57.520186 -65.843916 -13.724329 21.332902 -9.107085 9.787048 2.144730 47.274137 -73.382425 -35.352601 -55.002442 71.655713 -59.609660 4.009152 38.557699 -7.763051 -0.575691 -7.060859 3.813179 16.847357 -5.579831 1.565642 -2.652526 17.284586 3.346057 4.299660 -7.531031 1.666359 0.306564 -0.127635 -0.426871
22.237421 90.307704 17.410864 -39.148867 -4.883238 -3.656079 5.550601 5.394583 4.681778 2.830065 2.144593 2.397766 2.830065 2.144593 2.397766 2.113922 1.619617 1.788225 -8.781397 20.538943 0.686310 -16.169716 2.483994 3.827044 8.588982 3.681902 13.423447 27.494414 -4.450674 89.080085 24.256965 6.103826 -17.204271 -9.349577 7.978093 -4.255435 -26.113657 13.654235 -10.368417 -24.332807 11.479089 -57.670037 -66.078422 -13.384901 21.371745 -9.069755 9.748320 2.116055 39.922420 -69.889535 -27.405113 -51.886586 70.771645 -56.714087 2.024055 37.949382 -8.547020 -0.438458 -6.385729 3.333991 16.203355 -5.238238 1.670943 -2.264762 17.596191 3.417405 4.208912 -7.647981 1.705478 0.351657 -0.133336 -0.465444
21.997655 90.295632 17.455781 -39.062027 -5.230424 -3.618131 5.570936 5.408205 4.565453 2.799297 2.201374 2.387845 2.799297 2.201374 2.387845 2.090648 1.662037 1.780620 -8.848802 20.695651 0.650305 -16.269667 2.775618 3.761685 8.521509 3.611397 13.437595 27.085435 -4.437954 88.827591 23.910397 7.054432 -16.752056 -9.340793 8.141074 -4.309329 -26.060265 13.535850 -10.398839 -24.297718 11.508125 -57.851131 -66.274314 -13.101442 21.335805 -9.011560 9.695224 2.100322 34.631529 -66.032929 -21.105683 -48.423558 69.102790 -53.398880 0.462832 37.291346 -9.043923 -0.309724 -5.557633 2.720048 15.871504 -4.891996 1.814653 -1.752309 17.775842 3.544256 4.178076 -7.765545 1.781230 0.284564 -0.116115 -0.533778
21.751578 90.293100 17.509436 -39.131826 -5.311129 -3.633117 5.762848 5.236137 4.550819 2.772974 2.221930 2.369277 2.772974 2.221930 2.369277 2.070889 1.677266 1.766692 -8.916249 20.838050 0.616086 -16.371421 3.041042 3.701192 8.471007 3.531892 13.403068 26.750545 -4.433880 88.697759 23.647024 7.761800 -16.486330 -9.323226 8.162416 -4.274268 -25.983791 13.336311 -10.445438 -24.104551 11.538519 -58.005458 -66.369256 -12.849660 20.967802 -8.932383 9.706563 2.048521 30.478268 -62.035014 -16.020269 -44.594076 66.335051 -49.651315 -0.134808 36.542526 -9.492142 -0.184137 -4.547425 2.144442 15.709887 -4.752432 1.966174 -1.489602 17.869584 3.581725 4.265244 -7.900917 1.850911 0.212792 -0.059834 -0.577521
21.475092 90.296014 17.594236 -38.886990 -5.495688 -3.672339 5.740512 5.204517 4.576600 2.725695 2.225323 2.354622 2.725695 2.225323 2.354622 2.035473 1.679561 1.755857 -8.977788 20.980105 0.590597 -16.465108 3.306390 3.654722 8.486156 3.496021 13.352334 26.416187 -4.474002 88.618007 23.546524 8.034869 -16.423757 -9.242899 8.149342 -4.058467 -25.906134 13.084446 -10.481981 -23.606555 11.491367 -58.091023 -66.257323 -12.414625 20.038433 -8.857726 9.637117 2.051609 27.210051 -57.545452 -11.988830 -40.780943 63.556566 -45.661089 -1.003279 35.007514 -10.058675 0.056297 -3.282464 1.759223 15.360965 -4.474681 2.221933 -1.465610 17.919085 3.430888 4.431993 -8.035845 1.950526 0.164398 0.014406 -0.584273
21.218219 90.295017 17.759131 -38.475975 -5.828724 -3.374331 5.537583 5.331745 4.285652 2.689697 2.230940 2.337360 2.689697 2.230940 2.337360 2.008517 1.683558 1.743015 -9.031072 21.137917 0.583560 -16.548042 3.602526 3.637174 8.507274 3.403438 13.318461 26.152720 -4.460541 88.644239 23.555256 7.976550 -16.388337 -9.241750 8.079751 -3.861662 -25.852209 12.926042 -10.519242 -23.203676 11.381659 -58.168439 -66.032989 -12.072722 19.115783 -8.799341 9.658922 2.057514 25.785668 -52.634706 -10.297040 -37.427012 61.161753 -41.443547 -1.882774 33.367617 -10.389484 0.031929 -2.406345 1.340619 15.049498 -3.921639 2.149576 -1.534855 17.932353 3.325087 4.362006 -8.043634 1.965296 0.253066 -0.042629 -0.503083
20.927767 90.306462 17.930626 -38.004452 -6.387724 -3.220674 5.370402 5.509594 4.166465 2.643421 2.297633 2.321861 2.643421 2.297633 2.321861 1.973600 1.733334 1.731258 -9.074579 21.311874 0.607213 -16.620848 3.931757 3.670105 8.459613 3.340326 13.303018 26.121588 -4.487903 88.733080 23.452776 7.798289 -16.354566 -9.308104 8.020954 -3.774102 -25.824211 12.846567 -10.568051 -23.226949 11.338551 -58.300268 -65.692271 -11.822155 18.612680 -8.750568 9.607881 2.062700 23.552998 -47.434237 -7.877081 -33.988032 58.571912 -37.608152 -3.129800 31.402921 -10.641621 0.021045 -1.647945 0.932680 14.660565 -3.128750 2.253540 -1.513193 17.857240 3.259413 4.351310 -8.062741 1.973183 0.264103 -0.067534 -0.448261
20.674611 90.339117 18.099302 -37.788993 -6.749006 -3.058593 5.517413 5.437652 4.082713 2.584258 2.369270 2.307482 2.584258 2.369270 2.307482 1.929000 1.786776 1.720378 -9.116695 21.505758 0.628846 -16.689096 4.297358 3.696347 8.448311 3.348148 13.282075 26.145837 -4.555486 88.819109 23.110787 7.772087 -16.312758 -9.319102 8.015635 -3.658578 -25.760063 12.646145 -10.619979 -23.530161 11.557973 -58.502682 -65.371267 -11.854510 18.337359 -8.711787 9.611233 2.053560 22.283092 -42.617544 -6.284507 -32.526097 54.927668 -35.413825 -3.034044 30.171303 -10.669864 -0.067869 -1.368466 0.519196 14.791086 -2.482998 2.301495 -1.742106 17.657782 3.172694 4.321897 -8.017791 2.015313 0.231318 -0.120299 -0.405061
